<svg width="175" height="60" viewBox="0 0 175 60" fill="none" xmlns="http://www.w3.org/2000/svg">
<path d="M5.83807 7.18182L11.1115 23.7585H11.3139L16.598 7.18182H21.7116L14.1903 29H8.24574L0.713778 7.18182H5.83807ZM50.657 18.0909C50.657 20.4702 50.206 22.4943 49.304 24.1634C48.4091 25.8324 47.1875 27.1072 45.6392 27.9879C44.098 28.8615 42.3651 29.2983 40.4403 29.2983C38.5014 29.2983 36.7614 28.858 35.2202 27.9773C33.679 27.0966 32.4609 25.8217 31.5661 24.1527C30.6712 22.4837 30.2237 20.4631 30.2237 18.0909C30.2237 15.7116 30.6712 13.6875 31.5661 12.0185C32.4609 10.3494 33.679 9.07812 35.2202 8.20455C36.7614 7.32386 38.5014 6.88352 40.4403 6.88352C42.3651 6.88352 44.098 7.32386 45.6392 8.20455C47.1875 9.07812 48.4091 10.3494 49.304 12.0185C50.206 13.6875 50.657 15.7116 50.657 18.0909ZM45.9801 18.0909C45.9801 16.5497 45.7493 15.25 45.2876 14.1918C44.8331 13.1335 44.1903 12.331 43.3594 11.7841C42.5284 11.2372 41.5554 10.9638 40.4403 10.9638C39.3253 10.9638 38.3523 11.2372 37.5213 11.7841C36.6903 12.331 36.044 13.1335 35.5824 14.1918C35.1278 15.25 34.9006 16.5497 34.9006 18.0909C34.9006 19.6321 35.1278 20.9318 35.5824 21.9901C36.044 23.0483 36.6903 23.8509 37.5213 24.3977C38.3523 24.9446 39.3253 25.218 40.4403 25.218C41.5554 25.218 42.5284 24.9446 43.3594 24.3977C44.1903 23.8509 44.8331 23.0483 45.2876 21.9901C45.7493 20.9318 45.9801 19.6321 45.9801 18.0909ZM76.0414 14.2344C75.8922 13.7159 75.6827 13.2578 75.4128 12.8601C75.1429 12.4553 74.8127 12.1143 74.4221 11.8374C74.0385 11.5533 73.5982 11.3366 73.101 11.1875C72.611 11.0384 72.0676 10.9638 71.4711 10.9638C70.356 10.9638 69.3759 11.2408 68.5307 11.7947C67.6926 12.3487 67.0392 13.1548 66.5705 14.2131C66.1017 15.2642 65.8674 16.5497 65.8674 18.0696C65.8674 19.5895 66.0982 20.8821 66.5598 21.9474C67.0215 23.0128 67.6749 23.826 68.5201 24.3871C69.3652 24.9411 70.3631 25.218 71.5137 25.218C72.5577 25.218 73.449 25.0334 74.1877 24.6641C74.9334 24.2876 75.5016 23.7585 75.8922 23.0767C76.29 22.3949 76.4888 21.5888 76.4888 20.6584L77.4263 20.7969H71.8013V17.3239H80.9313V20.0724C80.9313 21.9901 80.5265 23.6378 79.7168 25.0156C78.9071 26.3864 77.7921 27.4446 76.3716 28.1903C74.9512 28.929 73.3248 29.2983 71.4924 29.2983C69.4469 29.2983 67.65 28.8473 66.1017 27.9453C64.5534 27.0362 63.3461 25.7472 62.4796 24.0781C61.6202 22.402 61.1905 20.4134 61.1905 18.1122C61.1905 16.3437 61.4462 14.767 61.9576 13.3821C62.476 11.9901 63.2005 10.8111 64.1309 9.84517C65.0613 8.87926 66.1444 8.14418 67.3801 7.63991C68.6159 7.13565 69.9547 6.88352 71.3965 6.88352C72.6323 6.88352 73.7828 7.06463 74.8482 7.42685C75.9135 7.78196 76.8581 8.28622 77.682 8.93963C78.513 9.59304 79.1912 10.3707 79.7168 11.2727C80.2424 12.1676 80.5797 13.1548 80.7289 14.2344H76.0414ZM105.373 7.18182H109.986V21.3509C109.986 22.9418 109.606 24.3338 108.846 25.527C108.093 26.7202 107.038 27.6506 105.682 28.3182C104.325 28.9787 102.745 29.3089 100.941 29.3089C99.13 29.3089 97.5462 28.9787 96.1896 28.3182C94.8331 27.6506 93.7784 26.7202 93.0256 25.527C92.2727 24.3338 91.8963 22.9418 91.8963 21.3509V7.18182H96.5092V20.9567C96.5092 21.7876 96.6903 22.5263 97.0526 23.1726C97.4219 23.8189 97.9403 24.3267 98.608 24.696C99.2756 25.0653 100.053 25.25 100.941 25.25C101.836 25.25 102.614 25.0653 103.274 24.696C103.942 24.3267 104.457 23.8189 104.819 23.1726C105.188 22.5263 105.373 21.7876 105.373 20.9567V7.18182ZM121.281 29V7.18182H135.983V10.9851H125.894V16.1839H135.226V19.9872H125.894V25.1967H136.025V29H121.281Z" fill="white"/>
<path d="M1.19318 55L3.60795 40.4545H8.33097C9.21165 40.4545 9.92898 40.6108 10.483 40.9233C11.0417 41.2358 11.4299 41.6738 11.6477 42.2372C11.8655 42.8007 11.9105 43.4564 11.7827 44.2045C11.6832 44.7917 11.5009 45.3125 11.2358 45.767C10.9754 46.2169 10.651 46.5909 10.2628 46.8892C9.87453 47.1828 9.44602 47.3887 8.97727 47.5071L8.97017 47.5923C9.46259 47.6349 9.8982 47.8125 10.277 48.125C10.6558 48.4328 10.9328 48.8518 11.108 49.3821C11.2879 49.9124 11.3187 50.5279 11.2003 51.2287C11.0772 51.9721 10.8073 52.6278 10.3906 53.196C9.97396 53.7595 9.42235 54.2022 8.7358 54.5241C8.04924 54.8414 7.23722 55 6.29972 55H1.19318ZM2.22301 54.1761H6.44176C7.53551 54.1761 8.42093 53.9015 9.09801 53.3523C9.77509 52.803 10.1894 52.0952 10.3409 51.2287C10.4403 50.6179 10.3859 50.071 10.1776 49.5881C9.97396 49.1051 9.64015 48.724 9.17614 48.4446C8.71686 48.1605 8.15578 48.0185 7.4929 48.0185H3.24574L2.22301 54.1761ZM3.38778 47.2088H7.52841C8.1392 47.2088 8.68371 47.0739 9.16193 46.804C9.64015 46.5341 10.0308 46.1719 10.3338 45.7173C10.6368 45.2628 10.831 44.7585 10.9162 44.2045C11.0677 43.3002 10.9091 42.5876 10.4403 42.0668C9.97159 41.5412 9.22112 41.2784 8.18892 41.2784H4.35369L3.38778 47.2088ZM27.7163 44.1264C27.7731 43.2031 27.5221 42.4621 26.9634 41.9034C26.4094 41.34 25.6093 41.0582 24.5629 41.0582C23.8526 41.0582 23.2016 41.1884 22.6097 41.4489C22.0179 41.7093 21.5254 42.0668 21.1325 42.5213C20.7442 42.9711 20.5004 43.4848 20.4009 44.0625C20.3394 44.4366 20.3559 44.7751 20.4506 45.0781C20.5501 45.3764 20.7134 45.6416 20.9407 45.8736C21.168 46.1056 21.4497 46.3116 21.7859 46.4915C22.122 46.6667 22.4985 46.8205 22.9151 46.9531L24.4279 47.4219C24.944 47.5876 25.4151 47.7794 25.8413 47.9972C26.2721 48.215 26.6344 48.4754 26.9279 48.7784C27.2215 49.0767 27.4298 49.4271 27.5529 49.8295C27.6808 50.232 27.6997 50.696 27.6097 51.2216C27.4819 52.0028 27.1741 52.6965 26.6864 53.3026C26.1987 53.9086 25.5666 54.3821 24.7901 54.723C24.0136 55.0639 23.1187 55.2344 22.1055 55.2344C21.1727 55.2344 20.382 55.0758 19.7333 54.7585C19.0894 54.4413 18.6135 54.0009 18.3058 53.4375C17.998 52.8693 17.8796 52.2159 17.9506 51.4773H18.8597C18.8076 52.0786 18.9142 52.5994 19.1793 53.0398C19.4445 53.4754 19.8398 53.8116 20.3654 54.0483C20.8957 54.285 21.5231 54.4034 22.2475 54.4034C23.0335 54.4034 23.7437 54.2685 24.3782 53.9986C25.0174 53.7287 25.543 53.3546 25.9549 52.8764C26.3716 52.3982 26.632 51.8442 26.7362 51.2145C26.8214 50.7031 26.774 50.2628 26.5941 49.8935C26.4142 49.5241 26.1088 49.2069 25.6779 48.9418C25.2518 48.6719 24.7096 48.4351 24.0515 48.2315L22.418 47.7202C21.3384 47.3745 20.5501 46.9058 20.0529 46.3139C19.5558 45.7173 19.3782 44.9763 19.5202 44.0909C19.6528 43.3286 19.9629 42.6586 20.4506 42.081C20.9383 41.5033 21.5515 41.0511 22.2901 40.7244C23.0288 40.3977 23.8337 40.2344 24.7049 40.2344C25.5714 40.2344 26.3076 40.4025 26.9137 40.7386C27.5245 41.0701 27.9743 41.5294 28.2631 42.1165C28.5567 42.7036 28.6632 43.3736 28.5827 44.1264H27.7163ZM46.7518 40.4545H47.6396L46.0487 50.0852C45.8877 51.0748 45.5136 51.9579 44.9265 52.7344C44.3394 53.5062 43.6031 54.117 42.7177 54.5668C41.837 55.0118 40.8711 55.2344 39.82 55.2344C38.783 55.2344 37.8976 55.0118 37.1637 54.5668C36.4298 54.117 35.8971 53.5038 35.5657 52.7273C35.2343 51.9508 35.149 51.0701 35.31 50.0852L36.9009 40.4545H37.7887L36.2049 50.0355C36.0676 50.8736 36.1315 51.6193 36.3967 52.2727C36.6618 52.9261 37.0951 53.4422 37.6964 53.821C38.2977 54.1951 39.0387 54.3821 39.9194 54.3821C40.7953 54.3821 41.605 54.1951 42.3484 53.821C43.0965 53.4422 43.7191 52.9261 44.2163 52.2727C44.7134 51.6193 45.0283 50.8736 45.1609 50.0355L46.7518 40.4545ZM56.7301 40.4545L54.3153 55H53.4276L55.8423 40.4545H56.7301ZM62.5252 55L64.94 40.4545H69.4215C70.3401 40.4545 71.1 40.6345 71.7013 40.9943C72.3074 41.3494 72.7335 41.8466 72.9798 42.4858C73.2307 43.125 73.2875 43.866 73.1502 44.7088C73.0082 45.5421 72.7075 46.276 72.2482 46.9105C71.7889 47.5402 71.1995 48.0327 70.4798 48.3878C69.7648 48.7429 68.948 48.9205 68.0295 48.9205H64.0096L64.1445 48.0895H68.1431C68.8865 48.0895 69.547 47.9498 70.1246 47.6705C70.707 47.3911 71.1805 46.9981 71.5451 46.4915C71.9144 45.9848 72.1559 45.3906 72.2695 44.7088C72.3832 44.0128 72.3406 43.4091 72.1417 42.8977C71.9428 42.3816 71.5996 41.9839 71.1119 41.7045C70.6242 41.4205 70.0063 41.2784 69.2582 41.2784H65.6857L63.413 55H62.5252ZM69.5991 48.4091L72.0778 55H71.0763L68.6119 48.4091H69.5991ZM88.6112 55L91.0259 40.4545H99.1225L98.9805 41.2784H91.7717L90.7773 47.3082H97.5529L97.4109 48.1321H90.6353L89.641 54.1761H97.0202L96.8782 55H88.6112ZM107.805 55.2273C106.924 55.2273 106.197 54.9858 105.624 54.5028C105.051 54.0199 104.656 53.3546 104.438 52.5071C104.22 51.6548 104.201 50.6771 104.381 49.5739C104.566 48.4801 104.909 47.5095 105.411 46.6619C105.913 45.8097 106.531 45.142 107.265 44.6591C107.999 44.1714 108.801 43.9276 109.673 43.9276C110.298 43.9276 110.821 44.0483 111.242 44.2898C111.668 44.5265 112.004 44.8414 112.251 45.2344C112.502 45.6274 112.672 46.0582 112.762 46.527H112.847L113.856 40.4545H114.715L112.3 55H111.455L111.853 52.6207H111.754C111.503 53.0895 111.188 53.5227 110.809 53.9205C110.43 54.3134 109.99 54.6307 109.488 54.8722C108.986 55.1089 108.425 55.2273 107.805 55.2273ZM107.94 54.4247C108.678 54.4247 109.353 54.214 109.964 53.7926C110.575 53.3665 111.086 52.7888 111.498 52.0597C111.91 51.3258 112.194 50.4948 112.35 49.5668C112.506 48.6387 112.504 47.8125 112.343 47.0881C112.187 46.3589 111.881 45.786 111.427 45.3693C110.972 44.9479 110.376 44.7372 109.637 44.7372C108.889 44.7372 108.212 44.9503 107.606 45.3764C107 45.7978 106.493 46.3731 106.086 47.1023C105.679 47.8314 105.399 48.6529 105.248 49.5668C105.096 50.4806 105.094 51.3045 105.241 52.0384C105.392 52.7723 105.693 53.3546 106.143 53.7855C106.593 54.2116 107.192 54.4247 107.94 54.4247ZM120.235 55L122.053 44.0909H122.913L121.094 55H120.235ZM122.891 42.152C122.688 42.152 122.517 42.0833 122.38 41.946C122.247 41.804 122.191 41.6312 122.21 41.4276C122.219 41.2571 122.295 41.108 122.437 40.9801C122.579 40.8523 122.742 40.7884 122.927 40.7884C123.13 40.7884 123.299 40.8594 123.431 41.0014C123.564 41.1387 123.623 41.3068 123.609 41.5057C123.594 41.6809 123.516 41.8324 123.374 41.9602C123.237 42.0881 123.076 42.152 122.891 42.152ZM134.398 44.0909L134.263 44.8651H129.505L129.633 44.0909H134.398ZM131.671 41.4773H132.531L130.727 52.4219C130.651 52.867 130.674 53.2315 130.798 53.5156C130.925 53.795 131.117 54.0033 131.373 54.1406C131.633 54.2732 131.929 54.3395 132.261 54.3395C132.407 54.3395 132.54 54.3277 132.658 54.304C132.777 54.2756 132.895 54.2448 133.013 54.2116L133.092 55C132.945 55.0521 132.789 55.0947 132.623 55.1278C132.457 55.161 132.265 55.1776 132.048 55.1776C131.593 55.1776 131.181 55.0758 130.812 54.8722C130.447 54.6686 130.17 54.3726 129.981 53.9844C129.796 53.5961 129.751 53.1274 129.846 52.5781L131.671 41.4773ZM139.837 55L141.655 44.0909H142.514L140.696 55H139.837ZM142.493 42.152C142.289 42.152 142.119 42.0833 141.982 41.946C141.849 41.804 141.792 41.6312 141.811 41.4276C141.821 41.2571 141.896 41.108 142.038 40.9801C142.18 40.8523 142.344 40.7884 142.528 40.7884C142.732 40.7884 142.9 40.8594 143.033 41.0014C143.165 41.1387 143.224 41.3068 143.21 41.5057C143.196 41.6809 143.118 41.8324 142.976 41.9602C142.839 42.0881 142.678 42.152 142.493 42.152ZM152.402 55.2273C151.493 55.2273 150.723 54.9834 150.094 54.4957C149.469 54.0033 149.024 53.3262 148.759 52.4645C148.493 51.6027 148.453 50.6179 148.638 49.5099C148.818 48.4304 149.173 47.4716 149.703 46.6335C150.238 45.7907 150.892 45.1302 151.663 44.652C152.435 44.169 153.264 43.9276 154.149 43.9276C155.063 43.9276 155.832 44.1761 156.457 44.6733C157.087 45.1657 157.535 45.8452 157.8 46.7116C158.065 47.5734 158.11 48.5559 157.935 49.6591C157.755 50.7339 157.395 51.6927 156.855 52.5355C156.32 53.3736 155.667 54.0317 154.895 54.5099C154.123 54.9882 153.292 55.2273 152.402 55.2273ZM152.416 54.4247C153.193 54.4247 153.908 54.2069 154.561 53.7713C155.214 53.3357 155.761 52.7462 156.202 52.0028C156.647 51.2595 156.943 50.4285 157.089 49.5099C157.236 48.6198 157.215 47.8149 157.026 47.0952C156.836 46.3707 156.498 45.7978 156.01 45.3764C155.522 44.9503 154.904 44.7372 154.156 44.7372C153.384 44.7372 152.67 44.9574 152.011 45.3977C151.358 45.8381 150.809 46.4299 150.364 47.1733C149.919 47.9167 149.623 48.7453 149.476 49.6591C149.324 50.5445 149.343 51.3494 149.533 52.0739C149.727 52.7936 150.068 53.3665 150.555 53.7926C151.048 54.214 151.668 54.4247 152.416 54.4247ZM166.063 47.9261L164.891 55H164.025L165.843 44.0909H166.688L166.404 45.8168H166.489C166.83 45.2533 167.313 44.8011 167.938 44.4602C168.563 44.1193 169.264 43.9489 170.04 43.9489C170.769 43.9489 171.387 44.1051 171.894 44.4176C172.4 44.7301 172.763 45.1752 172.98 45.7528C173.198 46.3258 173.241 47.0099 173.108 47.8054L171.908 55H171.042L172.235 47.8409C172.386 46.9129 172.239 46.1671 171.794 45.6037C171.354 45.0355 170.682 44.7514 169.777 44.7514C169.167 44.7514 168.598 44.884 168.073 45.1491C167.552 45.4143 167.114 45.786 166.759 46.2642C166.404 46.7377 166.172 47.2917 166.063 47.9261Z" fill="white"/>
</svg>
